<?xml version="1.0" encoding="iso-8859-1"?>
<!-- Uploaded to: SVG Repo, www.svgrepo.com, Generator: SVG Repo Mixer Tools -->
<svg version="1.1" id="Layer_1" xmlns="http://www.w3.org/2000/svg" xmlns:xlink="http://www.w3.org/1999/xlink" 
	 viewBox="0 0 512 512" xml:space="preserve">
<rect x="466.768" y="376.964" style="fill:#415E72;" width="13.746" height="71.813"/>
<path style="fill:#5DA36E;" d="M503.409,387.609h-78.804c-4.745,0-8.591-3.846-8.591-8.591s3.846-8.591,8.591-8.591h78.804
	c4.745,0,8.591,3.846,8.591,8.591S508.154,387.609,503.409,387.609z"/>
<path style="fill:#8DE0A8;" d="M192.021,387.609h260.068V193.055c0-71.697-58.122-129.832-129.82-129.832H156.746
	c-71.71,0-129.832,58.135-129.832,129.832v194.552h42.765"/>
<path style="fill:#7BC690;" d="M204.395,63.223h-47.649c-71.71,0-129.832,58.135-129.832,129.832v194.552h42.765h4.885V193.055
	C74.563,121.358,132.687,63.223,204.395,63.223z"/>
<circle style="fill:#415E72;" cx="130.847" cy="387.605" r="61.168"/>
<circle style="fill:#CFDCE5;" cx="130.847" cy="387.605" r="28.27"/>
<path style="fill:#344F5E;" d="M130.851,424.471c-20.325,0-36.861-16.536-36.861-36.86c0-20.325,16.536-36.861,36.861-36.861
	s36.861,16.536,36.861,36.861C167.712,407.935,151.176,424.471,130.851,424.471z M130.851,367.932
	c-10.851,0-19.679,8.828-19.679,19.679c0,10.851,8.828,19.678,19.679,19.678c10.851,0,19.679-8.828,19.679-19.678
	C150.53,376.759,141.702,367.932,130.851,367.932z"/>
<g>
	<path style="fill:#4EBFED;" d="M209.134,153.029H99.439c-10.701,0-19.376,8.675-19.376,19.376v52.882
		c0,10.701,8.675,19.376,19.376,19.376h109.695c10.701,0,19.376-8.675,19.376-19.376v-52.882
		C228.51,161.705,219.835,153.029,209.134,153.029z"/>
	<path style="fill:#4EBFED;" d="M369.625,153.029h-70.217c-10.701,0-19.376,8.675-19.376,19.376v52.882
		c0,10.701,8.675,19.376,19.376,19.376h70.217c10.701,0,19.376-8.675,19.376-19.376v-52.882
		C389.001,161.705,380.326,153.029,369.625,153.029z"/>
</g>
<g>
	<path style="fill:#FCD577;" d="M228.505,172.407v16.665H80.065v-16.665c0-10.703,8.675-19.378,19.378-19.378h109.696
		C219.831,153.028,228.505,161.703,228.505,172.407z"/>
	<path style="fill:#FCD577;" d="M388.994,172.407v16.665H280.031v-16.665c0-10.703,8.675-19.378,19.378-19.378h70.218
		C380.318,153.028,388.994,161.703,388.994,172.407z"/>
</g>
<g>
	<path style="fill:#5DA36E;" d="M209.134,253.253H99.441c-15.42,0-27.967-12.545-27.967-27.967v-52.883
		c0-15.42,12.546-27.967,27.967-27.967h109.695c15.42,0,27.967,12.546,27.967,27.967v52.883
		C237.101,240.708,224.556,253.253,209.134,253.253z M99.441,161.62c-5.946,0-10.785,4.838-10.785,10.785v52.883
		c0,5.946,4.838,10.785,10.785,10.785h109.695c5.946,0,10.785-4.837,10.785-10.785v-52.883c0-5.946-4.838-10.785-10.785-10.785
		L99.441,161.62L99.441,161.62z"/>
	<path style="fill:#5DA36E;" d="M369.625,253.253h-70.217c-15.42,0-27.967-12.545-27.967-27.967v-52.883
		c0-15.42,12.545-27.967,27.967-27.967h70.217c15.42,0,27.967,12.546,27.967,27.967v52.883
		C397.592,240.708,385.045,253.253,369.625,253.253z M299.408,161.62c-5.946,0-10.785,4.838-10.785,10.785v52.883
		c0,5.946,4.837,10.785,10.785,10.785h70.217c5.946,0,10.785-4.837,10.785-10.785v-52.883c0-5.946-4.837-10.785-10.785-10.785
		L299.408,161.62L299.408,161.62z"/>
	<rect x="26.915" y="287.388" style="fill:#5DA36E;" width="425.176" height="17.182"/>
	<path style="fill:#5DA36E;" d="M45.244,357.715H8.591c-4.745,0-8.591-3.846-8.591-8.591s3.846-8.591,8.591-8.591h36.653
		c4.745,0,8.591,3.846,8.591,8.591S49.988,357.715,45.244,357.715z"/>
</g>
</svg>