<svg id="Layer_1" data-name="Layer 1" xmlns="http://www.w3.org/2000/svg" viewBox="0 0 122.88 106.69"><title>personal-growth</title><defs><style>.growth-figure { fill: #00D9FF; } .growth-bars { fill: #00D9FF; } .growth-accent { fill: #00FFFF; }</style></defs><path class="growth-figure" d="M58.61,43.44c.73.38,1.46.72,2.18,1s1.68.68,2.48,1h0c5.09,2,9.27,3.62,10.67,11.4A55.81,55.81,0,0,1,74.33,64h7.09v42.66H61.1V64h3.53c0-1.75-.09-3.61-.27-5.05a5.68,5.68,0,0,0-.17-.84,4.09,4.09,0,0,0-.31-.75l-.08-.15c-.28-.53-.55-1-.76-1.1l0,0c-.38-.14-.87-.3-1.43-.47s-1.39-.4-2.15-.6l-2.52-.61-2.22-.5c-1.1,4.73-2.52,10.16-4.15,15.42-.7,2.28-1.45,4.53-2.22,6.68h3.45v30.65H31.45V76h6.48c1-3.35,2-6.75,3-10.17,1.5-5.37,2.88-10.79,4.11-16.1-.35-.38-.69-.79-1-1.21a12.92,12.92,0,0,1-1-1.66,9,9,0,0,1-.76-2.09,7.14,7.14,0,0,1-.1-2.32l1.63-12.68a4,4,0,0,0-1.75.41h0a5.48,5.48,0,0,0-1.41,1.13c-.46.49-.92,1.08-1.41,1.71l0,0c-.39.49-.79,1-1.29,1.6q-2.74,3.18-5.5,6.34a1.12,1.12,0,0,1-.76.38h0a1.08,1.08,0,0,1-.79-.27c-1.73-1.55-4-3.47-5.54-5.11a1.07,1.07,0,0,1-.31-.72v0a1.12,1.12,0,0,1,.29-.78c1.81-1.89,3.71-4.22,5.42-6.26,1-1.23,1.89-2.35,2.82-3.33a16.33,16.33,0,0,1,3-2.6,13.1,13.1,0,0,1,3.88-1.72h0a21.39,21.39,0,0,1,5.16-.66h.08c1.43-.07,3.11,0,4.5,0l1.74,0c7,0,10.52,3.44,13.23,6.12l0,0c.57.56,1.1,1.08,1.58,1.49a5.83,5.83,0,0,0,1.4.91h0c.25.08.86-.23,1.55-.57l0,0a15,15,0,0,1,1.62-.72c2.36-1.08,4.78-2.39,7.13-3.36A3.41,3.41,0,0,1,80,23.62a4.46,4.46,0,0,1,1.59.47,5.06,5.06,0,0,1,1.85,1.59l0,0a4.84,4.84,0,0,1,.6,1.15v0a5,5,0,0,1-.15,3.56,7.47,7.47,0,0,1-1.36,2.14,1.12,1.12,0,0,1-.2.18.86.86,0,0,1-.19.11C80,33.92,77.81,35,75.61,36A25.53,25.53,0,0,1,71,37.64a13.75,13.75,0,0,1-5.52,0l-.17,0a14.5,14.5,0,0,1-5.76-3.41l-.93,9.24ZM0,106.69V88.05H20.32v18.64Zm94.85,0V53.3H90.14a3,3,0,0,1-2.53-1.19c-1.32-2,.49-4,1.75-5.34C92.9,42.86,101,32.16,102.73,30.1a2.92,2.92,0,0,1,4.57,0c1.81,2.13,10.32,13.23,13.71,17,1.18,1.32,2.63,3.12,1.41,5a3,3,0,0,1-2.53,1.19h-4.71v53.39ZM51,.67A8.65,8.65,0,0,1,54.34,0a8.84,8.84,0,0,1,3.34.66,8.65,8.65,0,0,1,2.83,1.88A8.53,8.53,0,0,1,62.4,5.36a8.74,8.74,0,0,1,.68,3.33A8.84,8.84,0,0,1,62.42,12,8.72,8.72,0,0,1,45.64,8.74a8.75,8.75,0,0,1,2.55-6.18A8.68,8.68,0,0,1,51,.67Z"/></svg>